#!OML:ASF H:\Terrain\Patient Classification 1\Walking\liu\liu.ASF
:FULLY-SPECIFIED
:DEGREES
324
root 19.481421 32.739399 18.437719 14.410300 19.514799 8.881120
lowerback -16.133841 -9.768020 -12.952620
upperback -2.166520 -12.008900 3.689660
thorax 8.495840 -6.206140 9.631240
lowerneck -39.171001 -10.797420 -26.384600
upperneck 43.523602 -13.636580 25.629400
head 22.442400 -5.415580 11.760680
rclavicle -0.000000 -0.000000
rhumerus -101.451599 9.679500 -165.003601
rradius 60.855400
rwrist -31.430000
rhand -57.671398 -47.456799
rfingers 14.250040
rthumb -4.386080 -107.393600
lclavicle -0.000000 -0.000000
lhumerus -44.374001 -80.213997 198.222198
lradius 82.691399
lwrist 18.884840
lhand -10.567740 -49.129398
lfingers 14.250040
lthumb 41.041199 8.741540
rfemur -85.855003 2.914440 26.049999
rtibia 69.630402
rfoot -13.660520 -3.735120
rtoes -53.272800
lfemur 49.075802 8.564380 -44.349602
ltibia -0.000000
lfoot -14.324160 -10.111420
ltoes -29.700399
325
root 19.428921 32.714001 18.810520 14.071780 19.259100 8.133340
lowerback -15.689920 -9.518920 -12.184120
upperback -2.224080 -11.774960 3.730400
thorax 8.082380 -6.066000 9.317780
lowerneck -38.535801 -10.461820 -26.415800
upperneck 42.400398 -13.369880 26.572800
head 21.902399 -5.208740 12.130200
rclavicle 0.000000 -0.000000
rhumerus -101.745201 10.053440 -165.402603
rradius 61.154202
rwrist -32.529400
rhand -58.241402 -46.553001
rfingers 14.250040
rthumb -4.936580 -106.483803
lclavicle 0.000000 -0.000000
lhumerus -45.967602 -80.326202 199.210403
lradius 82.206398
lwrist 19.068220
lhand -10.833620 -49.215801
lfingers 14.250040
lthumb 40.785801 8.682520
rfemur -85.910797 2.831420 27.643801
rtibia 72.196800
rfoot -11.799840 -2.869460
rtoes -51.916401
lfemur 50.488998 9.213700 -42.762402
ltibia -0.000000
lfoot -11.225060 -10.475160
ltoes -31.944201
326
root 19.385960 32.704201 19.202620 13.898000 18.832260 7.535160
lowerback -15.732440 -9.293960 -11.684280
upperback -2.325240 -11.520780 3.839040
thorax 7.928900 -5.926440 9.190060
lowerneck -37.789200 -10.202220 -26.087601
upperneck 41.628201 -13.078100 26.422199
head 21.411200 -5.089580 12.029480
rclavicle 0.000000 0.000000
rhumerus -101.810204 10.207560 -165.278793
rradius 61.028400
rwrist -31.674801
rhand -56.922798 -44.438400
rfingers 14.250040
rthumb -3.663040 -104.382202
lclavicle 0.000000 0.000000
lhumerus -47.784000 -79.585197 200.388000
lradius 81.579002
lwrist 18.587299
lhand -11.712220 -49.499802
lfingers 14.250040
lthumb 39.941399 8.487700
rfemur -86.186996 2.986520 28.941401
rtibia 74.795799
rfoot -10.950020 -1.935832
rtoes -48.831200
lfemur 51.677399 10.004520 -41.352798
ltibia 0.000000
lfoot -7.719780 -9.944180
ltoes -31.298000
327
root 19.341841 32.693802 19.587099 14.074120 18.580919 6.947560
lowerback -16.063820 -9.251960 -11.284680
upperback -2.560180 -11.491580 4.071140
thorax 7.848980 -5.899780 9.199720
lowerneck -37.639999 -10.129020 -26.100401
upperneck 41.740200 -12.970340 26.309401
head 21.401800 -5.059180 12.010180
rclavicle 0.000000 -0.000000
rhumerus -101.433601 11.197140 -165.716995
rradius 60.498798
rwrist -31.314199
rhand -57.065800 -44.527802
rfingers 14.250040
rthumb -3.801240 -104.470200
lclavicle 0.000000 -0.000000
lhumerus -49.562199 -77.495399 201.628006
lradius 80.501999
lwrist 17.770559
lhand -12.786100 -49.872799
lfingers 14.250040
lthumb 38.909000 8.220720
rfemur -86.565598 2.959020 30.240000
rtibia 77.193604
rfoot -10.952420 -0.509458
rtoes -46.498402
lfemur 52.497398 10.626900 -40.021801
ltibia -0.000000
lfoot -4.140540 -9.099200
ltoes -29.705400
328
root 19.301161 32.685200 19.960760 14.030900 18.637899 6.308340
lowerback -16.046181 -9.404280 -10.775940
upperback -2.791400 -11.752460 4.358100
thorax 7.609900 -6.013520 9.191820
lowerneck -37.419399 -9.845440 -26.310600
upperneck 41.610600 -12.630140 26.745800
head 21.283001 -4.879880 12.263320
rclavicle 0.000000 -0.000000
rhumerus -100.938202 12.158480 -166.045197
rradius 60.131401
rwrist -31.375000
rhand -58.494202 -46.877399
rfingers 14.250040
rthumb -5.180800 -106.805603
lclavicle 0.000000 -0.000000
lhumerus -51.208199 -75.032204 202.751999
lradius 78.969200
lwrist 16.864120
lhand -13.079760 -49.862801
lfingers 14.250040
lthumb 38.626598 8.259160
rfemur -86.287598 2.639060 31.725201
rtibia 79.191597
rfoot -11.110900 0.825654
rtoes -43.714802
lfemur 53.515800 10.953720 -38.611599
ltibia 0.000000
lfoot -0.312642 -8.558860
ltoes -29.659201
329
root 19.258301 32.683399 20.334200 13.665580 18.566219 5.474340
lowerback -15.815660 -9.353980 -10.073940
upperback -2.764000 -11.766920 4.619280
thorax 7.469800 -6.011580 9.088120
lowerneck -37.612598 -9.702240 -26.310200
upperneck 41.422600 -12.438880 26.961399
head 21.229799 -4.761480 12.368420
rclavicle 0.000000 -0.000000
rhumerus -100.185600 12.013160 -165.505203
rradius 59.812801
rwrist -30.025400
rhand -56.456402 -49.845798
rfingers 14.250040
rthumb -3.212700 -109.793198
lclavicle 0.000000 -0.000000
lhumerus -52.563599 -73.541000 203.695999
lradius 77.446999
lwrist 15.848200
lhand -13.822780 -49.898201
lfingers 14.250040
lthumb 37.911999 8.294460
rfemur -85.511002 2.532620 33.464600
rtibia 80.751602
rfoot -11.166980 1.401350
rtoes -38.344601
lfemur 54.739601 11.414380 -36.960201
ltibia 0.000000
lfoot 4.038660 -7.966080
ltoes -30.727600
330
root 19.183281 32.695999 20.714800 13.414980 18.048780 3.853680
lowerback -15.879600 -9.009020 -8.879760
upperback -2.696300 -11.422060 5.050640
thorax 7.463340 -5.829300 8.911100
lowerneck -38.153801 -9.702720 -25.976200
upperneck 41.596401 -12.421460 26.688601
head 21.372200 -4.738080 12.215820
rclavicle 0.000000 0.000000
rhumerus -99.096397 11.205560 -164.668594
rradius 58.736000
rwrist -28.100201
rhand -51.623199 -53.708000
rfingers 14.250040
rthumb 1.455450 -113.665001
lclavicle 0.000000 0.000000
lhumerus -53.772400 -72.023804 204.320007
lradius 76.058601
lwrist 15.362000
lhand -16.102940 -50.371399
lfingers 14.250040
lthumb 35.718601 8.028420
rfemur -84.891602 3.748980 35.846802
rtibia 81.999199
rfoot -11.670020 0.961822
rtoes -34.051201
lfemur 55.592201 12.348480 -34.363800
ltibia 0.000000
lfoot 8.305120 -7.236460
ltoes -33.613800
331
root 19.116220 32.728401 21.100599 12.786500 17.875080 1.960426
lowerback -15.844300 -8.837380 -7.409660
upperback -2.524100 -11.339380 5.553200
thorax 7.523840 -5.777040 8.621160
lowerneck -38.620399 -9.641540 -25.569000
upperneck 42.031200 -12.358580 26.349800
head 21.583200 -4.698520 12.043300
rclavicle 0.000000 0.000000
rhumerus -98.045799 10.733700 -164.134796
rradius 57.776402
rwrist -27.251801
rhand -49.569801 -53.675400
rfingers 14.250040
rthumb 3.438660 -113.621002
lclavicle 0.000000 0.000000
lhumerus -54.835602 -69.920998 204.703995
lradius 74.393997
lwrist 15.791060
lhand -17.628201 -50.638802
lfingers 14.250040
lthumb 34.250801 7.891740
rfemur -83.522598 4.731080 38.542400
rtibia 83.026199
rfoot -12.746660 1.068250
rtoes -32.118401
lfemur 56.845402 12.918680 -31.379801
ltibia 0.000000
lfoot 12.166440 -6.451280
ltoes -36.005199
332
root 19.098320 32.771599 21.472601 12.041420 18.417179 1.610300
lowerback -15.514700 -8.928660 -6.991220
upperback -2.242620 -11.507640 5.549720
thorax 7.610160 -5.861800 8.374520
lowerneck -38.968800 -9.787760 -25.545000
upperneck 42.268200 -12.566420 26.388000
head 21.770399 -4.775800 12.031180
rclavicle 0.000000 -0.000000
rhumerus -97.106201 10.542200 -164.061798
rradius 58.318199
rwrist -27.129999
rhand -50.490398 -57.523800
rfingers 14.250040
rthumb 2.549600 -117.475601
lclavicle 0.000000 -0.000000
lhumerus -55.575001 -68.023003 205.175995
lradius 72.130798
lwrist 15.711860
lhand -18.591181 -50.820599
lfingers 14.250040
lthumb 33.323799 7.789120
rfemur -81.514397 3.654680 39.753799
rtibia 83.908203
rfoot -14.089940 2.783180
rtoes -32.226398
lfemur 50.444401 13.333380 -29.899000
ltibia 15.319840
lfoot 9.901400 -8.077140
ltoes -31.982201
333
root 19.073620 32.819801 21.816799 11.922620 19.247841 2.112040
lowerback -15.109220 -9.146900 -7.489220
upperback -2.255400 -11.763940 5.412600
thorax 7.432660 -5.992900 8.507420
lowerneck -39.546799 -10.014300 -25.395599
upperneck 42.594398 -12.835820 26.145399
head 22.029200 -4.894500 11.881940
rclavicle 0.000000 -0.000000
rhumerus -95.853996 8.872040 -162.326401
rradius 56.444199
rwrist -24.391800
rhand -50.265999 -51.208801
rfingers 14.250040
rthumb 2.766240 -111.159401
lclavicle 0.000000 -0.000000
lhumerus -56.145802 -65.717003 205.654007
lradius 69.517197
lwrist 14.397800
lhand -20.768200 -51.083401
lfingers 14.250040
lthumb 31.227400 7.696280
rfemur -80.084801 2.419560 39.810600
rtibia 84.644203
rfoot -15.394760 3.770800
rtoes -31.342199
lfemur 45.691200 13.333760 -29.637199
ltibia 25.708799
lfoot 11.042660 -8.416700
ltoes -24.840000
334
root 19.017679 32.871201 22.150200 11.961640 20.027000 1.604160
lowerback -14.632640 -9.353740 -7.254120
upperback -2.540780 -12.076980 5.595480
thorax 6.898900 -6.133260 8.577660
lowerneck -39.903400 -10.064400 -25.036800
upperneck 42.951401 -12.945380 25.879801
head 22.223200 -4.932940 11.713800
rclavicle 0.000000 -0.000000
rhumerus -95.499001 8.134660 -161.565796
rradius 56.533600
rwrist -23.102200
rhand -48.729401 -54.550598
rfingers 14.250040
rthumb 4.250360 -114.488800
lclavicle 0.000000 -0.000000
lhumerus -56.875401 -63.430599 205.832001
lradius 67.175400
lwrist 14.242600
lhand -22.308001 -51.103199
lfingers 14.250040
lthumb 29.744200 7.789220
rfemur -78.969002 2.403240 40.734402
rtibia 85.115799
rfoot -16.896620 3.404580
rtoes -29.991199
lfemur 41.538200 13.023360 -28.501600
ltibia 34.245201
lfoot 12.568240 -7.807220
ltoes -22.950199
